<svg width="956" height="724" viewBox="0 0 956 724" fill="none" xmlns="http://www.w3.org/2000/svg">
<g clip-path="url(#clip0_913_214)">
<rect width="956" height="724" fill="#FC4C02"/>
<circle cx="44.5" cy="176.5" r="256.5" fill="url(#paint0_angular_913_214)"/>
<path d="M252.625 176.5C252.625 291.444 159.444 384.625 44.5 384.625C-70.4443 384.625 -163.625 291.444 -163.625 176.5C-163.625 61.5557 -70.4443 -31.625 44.5 -31.625C159.444 -31.625 252.625 61.5557 252.625 176.5Z" fill="#FC4C02"/>
<circle cx="44.5" cy="177.625" r="164.25" fill="url(#paint1_angular_913_214)"/>
<circle cx="45.0625" cy="175.938" r="119.812" fill="#FC4C02"/>
<circle cx="44.5" cy="176.5" r="82.125" fill="url(#paint2_angular_913_214)"/>
<circle cx="45.0625" cy="177.062" r="41.0625" fill="#FC4C02"/>
<g style="mix-blend-mode:overlay">
<path d="M622.483 474.127C611.884 478.304 600.902 481.371 589.682 483.282C466.498 504.596 305.206 556.283 197.192 680.795C47.8 852.984 -267.992 836.059 -410.26 818.17C-518.961 804.528 -598.524 716.192 -595.934 610.541C-595.902 609.05 -595.85 607.555 -595.775 606.057C-593.182 542.96 -568.542 486.93 -528.945 449.438C-494.438 416.757 -447.777 355.964 -445.271 264.802C-444.228 227.158 -438.581 190.365 -427.294 156.433C-397.071 65.5404 -320.796 -79.0108 -134.228 -133.125C-101.501 -142.575 -67.4428 -146.377 -33.3815 -144.411C41.5954 -140.232 117.108 -109.108 183.429 -54.6818C225.743 -19.9763 282.103 7.29118 347.235 -8.29492C437.643 -29.8954 534.991 -11.6238 620.701 46.6285C623.169 48.3041 625.619 49.9945 628.084 51.7162C781.849 159.46 769.419 416.008 622.494 474.125L622.483 474.127Z" fill="url(#paint3_linear_913_214)" fill-opacity="0.6"/>
</g>
<circle cx="938.5" cy="710.5" r="54.5" fill="#FB8A10"/>
<circle cx="938" cy="711" r="114" stroke="#FB8A10" stroke-opacity="0.8" stroke-width="32"/>
<circle cx="938" cy="711" r="184" stroke="#FB8A10" stroke-opacity="0.6" stroke-width="32"/>
<circle cx="938" cy="711" r="249" stroke="#FB8A10" stroke-opacity="0.4" stroke-width="32"/>
</g>
<defs>
<radialGradient id="paint0_angular_913_214" cx="0" cy="0" r="1" gradientUnits="userSpaceOnUse" gradientTransform="translate(44.5 176.5) scale(256.5)">
<stop stop-color="#F9D026" stop-opacity="0"/>
<stop offset="1" stop-color="#F9D026"/>
</radialGradient>
<radialGradient id="paint1_angular_913_214" cx="0" cy="0" r="1" gradientUnits="userSpaceOnUse" gradientTransform="translate(44.5 177.625) scale(164.25)">
<stop stop-color="#F9D026" stop-opacity="0"/>
<stop offset="1" stop-color="#F9D026"/>
</radialGradient>
<radialGradient id="paint2_angular_913_214" cx="0" cy="0" r="1" gradientUnits="userSpaceOnUse" gradientTransform="translate(44.5 176.5) rotate(0.268992) scale(82.1259)">
<stop stop-color="#F9D026" stop-opacity="0"/>
<stop offset="1" stop-color="#F9D026"/>
</radialGradient>
<linearGradient id="paint3_linear_913_214" x1="-634.424" y1="539.691" x2="686.844" y2="77.7158" gradientUnits="userSpaceOnUse">
<stop stop-color="#13322B"/>
<stop offset="1" stop-color="white"/>
</linearGradient>
<clipPath id="clip0_913_214">
<rect width="956" height="724" fill="white"/>
</clipPath>
</defs>
</svg>
